<?xml version="1.0" encoding="UTF-8" standalone="no"?>
<svg width="48px" height="39px" viewBox="0 0 48 39" version="1.1" xmlns="http://www.w3.org/2000/svg" xmlns:xlink="http://www.w3.org/1999/xlink">
    <!-- Generator: Sketch 40.1 (33804) - http://www.bohemiancoding.com/sketch -->
    <title>Shape</title>
    <desc>Created with Sketch.</desc>
    <defs></defs>
    <g id="Page-1" stroke="none" stroke-width="1" fill="none" fill-rule="evenodd">
        <path d="M48,4.61705291 C46.234,5.40089212 44.336,5.92878384 42.344,6.16673503 C44.378,4.94898482 45.94,3.01938064 46.674,0.719852338 C44.772,1.847621 42.664,2.66745283 40.42,3.10936218 C38.626,1.19575472 36.064,0 33.232,0 C26.874,0 22.202,5.93078343 23.638,12.0875205 C15.456,11.6776046 8.2,7.75840853 3.342,1.80163043 C0.762,6.22672272 2.004,12.0155353 6.388,14.946934 C4.776,14.8949446 3.256,14.4530353 1.93,13.7151866 C1.822,18.276251 5.092,22.5433757 9.828,23.4931809 C8.442,23.8691038 6.924,23.9570857 5.38,23.6611464 C6.632,27.5723441 10.268,30.4177605 14.58,30.4977441 C10.44,33.7430783 5.224,35.192781 0,34.5769073 C4.358,37.3703343 9.536,39 15.096,39 C33.38,39 43.71,23.5611669 43.086,9.71400738 C45.01,8.32429245 46.68,6.59064807 48,4.61705291 L48,4.61705291 Z" id="Shape" fill="#000000"></path>
    </g>
</svg>