<?xml version="1.0" encoding="UTF-8"?>
<svg width="970px" height="160px" viewBox="0 0 970 160" version="1.1" xmlns="http://www.w3.org/2000/svg" xmlns:xlink="http://www.w3.org/1999/xlink">
    <!-- Generator: Sketch 43.2 (39069) - http://www.bohemiancoding.com/sketch -->
    <title>logo-on-black</title>
    <desc>Created with Sketch.</desc>
    <defs>
        <path d="M80,160 C35.81722,160 0,124.18278 0,80 C0,35.81722 35.81722,0 80,0 C124.18278,0 160,35.81722 160,80 C160,124.18278 124.18278,160 80,160 Z" id="path-1"></path>
    </defs>
    <g id="Page-1" stroke="none" stroke-width="1" fill="none" fill-rule="evenodd">
        <g id="logo-on-black" transform="translate(-40.000000, -40.000000)">
            <g transform="translate(40.000000, 40.000000)">
                <g id="text" transform="translate(202.000000, 19.000000)" fill="#FFFFFF">
                    <path d="M55.7705828,33.1973729 C50.323747,27.1114425 42.6272468,24.0685229 32.6808511,24.0685229 C24.4711276,24.0685229 18.4915389,25.6295012 14.7419056,28.7515044 C10.9922723,31.8735077 9.11748381,36.0822211 9.11748381,41.3777709 C9.11748381,44.0650648 9.5911146,46.2978565 10.5383904,48.0762128 C11.4856662,49.854569 12.9657624,51.3760288 14.9787234,52.6406377 C16.9916844,53.9052466 19.5374499,54.9722444 22.6160962,55.841663 C25.6947425,56.7110817 29.4048503,57.6200057 33.746531,58.5684624 C38.246091,59.5169191 42.3311565,60.5641576 46.0018501,61.7102094 C49.6725438,62.8562613 52.7906131,64.2986842 55.3561517,66.0375214 C57.9216903,67.7763587 59.8951519,69.9103542 61.2765957,72.439572 C62.6580396,74.9687899 63.3487512,78.0907463 63.3487512,81.805535 C63.3487512,85.5203237 62.6185704,88.7608354 61.1581869,91.5271674 C59.6978034,94.2934994 57.6454033,96.6053279 55.0009251,98.4627222 C52.3564468,100.320117 49.1989083,101.723021 45.5282146,102.671478 C41.857521,103.619934 37.7724554,104.094156 33.2728955,104.094156 C20.1689138,104.094156 9.07805957,99.9052015 0,91.5271674 L3.19703978,86.6663512 C6.74932396,90.3811399 11.0909395,93.3252633 16.2220167,95.4988099 C21.3530938,97.6723565 27.1156017,98.7591135 33.5097132,98.7591135 C40.8511005,98.7591135 46.5938738,97.4154867 50.7382054,94.7281927 C54.8825369,92.0408988 56.9546716,87.9704999 56.9546716,82.5168739 C56.9546716,79.7505419 56.4021023,77.399195 55.2969473,75.4627626 C54.1917922,73.5263302 52.5538191,71.8467967 50.3829787,70.4241117 C48.2121384,69.0014266 45.4690268,67.7763551 42.1535615,66.7488604 C38.8380963,65.7213656 34.9701115,64.7334048 30.5494912,63.7849481 C26.0499312,62.8364914 22.0832734,61.8287713 18.6493987,60.7617575 C15.215524,59.6947437 12.33427,58.3511169 10.0055504,56.7308367 C7.67683079,55.1105566 5.92044995,53.154394 4.73635523,50.8622903 C3.5522605,48.5701867 2.96022202,45.6853409 2.96022202,42.2076664 C2.96022202,38.4138396 3.69040281,35.0547726 5.15078631,32.1303645 C6.61116981,29.2059563 8.64383526,26.7360541 11.2488437,24.7205837 C13.8538521,22.7051132 16.9719214,21.1836534 20.6031452,20.1561587 C24.2343691,19.1286639 28.2602307,18.6149243 32.6808511,18.6149243 C38.1276868,18.6149243 42.9824024,19.4250522 47.2451434,21.0453324 C51.5078844,22.6656125 55.3758692,25.1355148 58.8492137,28.4551132 L55.7705828,33.1973729 Z" id="Path"></path>
                    <path d="M72.7030527,60.7024792 C72.7030527,55.6440436 73.5911105,50.605443 75.3672525,45.5865264 C77.1433946,40.5676098 79.7286293,36.0822673 83.1230342,32.1303645 C86.5174391,28.1784616 90.6814431,24.9577091 95.6151711,22.4680103 C100.548899,19.9783115 106.173265,18.7334808 112.488437,18.7334808 C119.987703,18.7334808 126.381719,20.4525327 131.670675,23.8906882 C136.959632,27.3288437 140.906555,31.7351493 143.511563,37.1097372 L138.53839,39.955093 C137.038537,37.0306849 135.282156,34.5805419 133.269195,32.6045904 C131.256234,30.628639 129.085426,29.0281424 126.756707,27.8030525 C124.427987,26.5779626 122.000629,25.6887978 119.474561,25.1355314 C116.948492,24.582265 114.46193,24.3056359 112.014801,24.3056359 C106.646905,24.3056359 101.910597,25.3923929 97.8057354,27.5659395 C93.7008737,29.7394861 90.2275813,32.5650542 87.3857539,36.0427287 C84.5439266,39.5204032 82.3928534,43.4524876 80.9324699,47.8390998 C79.4720864,52.2257119 78.7419056,56.6320175 78.7419056,61.0581487 C78.7419056,66.0375463 79.6102288,70.7797586 81.346901,75.2849279 C83.0835733,79.7900971 85.4517272,83.7616999 88.4514339,87.1998554 C91.4511405,90.6380109 95.0033714,93.3845422 99.1082331,95.4395317 C103.213095,97.4945212 107.633649,98.5220005 112.370028,98.5220005 C114.896097,98.5220005 117.501066,98.205853 120.185014,97.5735485 C122.868962,96.9412441 125.434462,95.9532832 127.881591,94.6096362 C130.32872,93.2659892 132.617936,91.5469373 134.749306,89.4524288 C136.880677,87.3579203 138.656792,84.888018 140.077706,82.042648 L145.287697,84.5323343 C143.866783,87.6938566 141.932791,90.4996655 139.485661,92.9498453 C137.038532,95.4000251 134.315155,97.4549837 131.315449,99.1147829 C128.315742,100.774582 125.138469,102.019413 121.783534,102.849312 C118.428599,103.679212 115.132918,104.094156 111.896392,104.094156 C106.133798,104.094156 100.864655,102.829566 96.0888067,100.300348 C91.3129579,97.77113 87.1884232,94.4713407 83.7150786,90.4008807 C80.2417341,86.3304208 77.5380917,81.7067638 75.6040703,76.5297711 C73.6700489,71.3527783 72.7030527,66.0770671 72.7030527,60.7024792 Z" id="Path"></path>
                    <polygon id="Path" points="225.3321 19.2077067 225.3321 103.382817 219.293247 103.382817 219.293247 63.0736091 166.246068 63.0736091 166.246068 103.382817 160.207216 103.382817 160.207216 19.2077067 166.246068 19.2077067 166.246068 57.6200104 219.293247 57.6200104 219.293247 19.2077067"></polygon>
                    <polygon id="Path" points="260.341667 10.5117424 260.341667 0.0787710337 265.551658 0.0787710337 265.551658 10.5117424"></polygon>
                    <polygon id="Path" points="296.180066 10.5117424 296.180066 0.0787710337 301.390056 0.0787710337 301.390056 10.5117424"></polygon>
                    <path d="M280.747456,103.975599 C274.905922,103.975599 269.577576,102.750528 264.762257,100.300348 C259.946939,97.8501681 255.802669,94.6491748 252.329325,90.697272 C248.85598,86.7453691 246.172072,82.200749 244.277521,77.0632753 C242.382969,71.9258016 241.435708,66.6698496 241.435708,61.2952617 C241.435708,55.6835597 242.442173,50.3090524 244.455134,45.1715787 C246.468095,40.034105 249.230941,35.4894849 252.743756,31.537582 C256.25657,27.5856791 260.420574,24.4439635 265.235893,22.1123408 C270.051211,19.7807181 275.26115,18.6149243 280.865865,18.6149243 C286.707399,18.6149243 292.05548,19.859755 296.910268,22.3494538 C301.765057,24.8391526 305.909326,28.0994235 309.343201,32.1303645 C312.777075,36.1613054 315.441249,40.7256847 317.3358,45.8236394 C319.230352,50.9215941 320.177613,56.0787499 320.177613,61.2952617 C320.177613,66.9860018 319.171148,72.4000275 317.158187,77.5375012 C315.145226,82.674975 312.38238,87.1998358 308.869565,91.1122197 C305.356751,95.0246035 301.192747,98.1465599 296.377428,100.478183 C291.56211,102.809805 286.352171,103.975599 280.747456,103.975599 Z M247.474561,61.2952617 C247.474561,66.1165832 248.28368,70.7599994 249.901943,75.2256496 C251.520205,79.6912999 253.809421,83.6431434 256.769658,87.0812989 C259.729895,90.5194544 263.262391,93.2659857 267.367253,95.3209752 C271.472114,97.3759647 275.971607,98.403444 280.865865,98.403444 C285.918002,98.403444 290.476699,97.3364462 294.542091,95.2024187 C298.607483,93.0683911 302.080775,90.242823 304.962072,86.7256294 C307.843369,83.2084359 310.073381,79.2368331 311.652174,74.8107019 C313.230967,70.3845707 314.020352,65.879469 314.020352,61.2952617 C314.020352,56.4739402 313.191498,51.830524 311.533765,47.3648738 C309.876032,42.8992236 307.567082,38.94738 304.606846,35.5092245 C301.646609,32.071069 298.153582,29.3245377 294.12766,27.2695483 C290.101738,25.2145588 285.681183,24.1870794 280.865865,24.1870794 C275.813727,24.1870794 271.235297,25.2540772 267.130435,27.3881047 C263.025573,29.5221323 259.512811,32.3477004 256.592044,35.864894 C253.671277,39.3820875 251.421531,43.3536903 249.842738,47.7798215 C248.263945,52.2059527 247.474561,56.7110544 247.474561,61.2952617 Z" id="Combined-Shape"></path>
                    <polygon id="Path" points="342.438483 30.5891301 342.438483 103.382817 336.39963 103.382817 336.39963 19.2077067 341.017576 19.2077067 399.985199 93.3055148 399.985199 19.2077067 406.024052 19.2077067 406.024052 103.382817 400.458834 103.382817"></polygon>
                    <polygon id="Path" points="460.13691 19.8004892 466.057354 19.8004892 478.608696 50.3880644 491.160037 19.8004892 497.080481 19.8004892 482.279371 55.2488806 499.922294 96.2694271 532.12951 19.2077067 538.760407 19.2077067 502.764107 103.382817 497.19889 103.382817 478.727105 60.1096968 460.13691 103.382817 454.571693 103.382817 418.693802 19.2077067 425.20629 19.2077067 457.531915 96.2694271 474.93802 55.2488806"></polygon>
                    <path d="M577.835338,19.2077067 L583.045328,19.2077067 L618.567993,103.382817 L612.173913,103.382817 L600.451434,75.6405974 L560.310823,75.6405974 L548.588344,103.382817 L542.075856,103.382817 L577.835338,19.2077067 Z M598.79371,70.6612247 L580.440333,26.5582093 L561.73173,70.6612247 L598.79371,70.6612247 Z" id="Combined-Shape"></path>
                    <polygon id="Path" points="631.356152 103.382817 631.356152 19.2077067 637.395005 19.2077067 637.395005 97.929218 687.60037 97.929218 687.60037 103.382817"></polygon>
                    <path d="M700.151711,103.382817 L700.151711,19.2077067 L728.096207,19.2077067 C734.727138,19.2077067 740.548849,20.3142229 745.561517,22.5272885 C750.574185,24.7403541 754.738189,27.7437553 758.053654,31.537582 C761.369119,35.3314087 763.855681,39.7772328 765.513414,44.8751874 C767.171146,49.9731421 768,55.4069271 768,61.1767052 C768,67.5787878 767.072473,73.3682387 765.217391,78.5452314 C763.36231,83.7222242 760.698136,88.148289 757.224792,91.8235586 C753.751447,95.4988283 749.547974,98.3441557 744.614246,100.359626 C739.680518,102.375097 734.17456,103.382817 728.096207,103.382817 L700.151711,103.382817 Z M761.961147,61.1767052 C761.961147,55.8811554 761.211232,51.0006286 759.711378,46.5349783 C758.211525,42.0693281 756.020983,38.2162806 753.139685,34.9757203 C750.258388,31.7351599 746.725892,29.2059801 742.542091,27.3881047 C738.358289,25.5702294 733.543043,24.6613054 728.096207,24.6613054 L706.190564,24.6613054 L706.190564,97.929218 L728.096207,97.929218 C733.621983,97.929218 738.496433,97.0005348 742.719704,95.1431404 C746.942975,93.2857461 750.475471,90.6972885 753.317299,87.3776902 C756.159126,84.0580918 758.310199,80.1655258 759.770583,75.6998756 C761.230966,71.2342254 761.961147,66.393217 761.961147,61.1767052 Z" id="Combined-Shape"></path>
                </g>
                <g id="icon-on-black" class="logo-icon">
                    <mask id="mask-2" fill="white">
                        <use xlink:href="#path-1"></use>
                    </mask>
                    <use id="Oval" fill="#FFFFFF" fill-rule="nonzero" xlink:href="#path-1"></use>
                    <polygon id="Rectangle" fill="#BA3E48" fill-rule="nonzero" mask="url(#mask-2)" points="64 128 96 128 96 160 64 160"></polygon>
                    <path d="M80,144 C44.653776,144 16,115.346224 16,80 C16,44.653776 44.653776,16 80,16 C115.346224,16 144,44.653776 144,80 C144,115.346224 115.346224,144 80,144 Z" id="Path" fill="#FFFFFF" mask="url(#mask-2)"></path>
                    <path d="M80,135 C110.375661,135 135,110.375661 135,80 C135,49.6243388 110.375661,25 80,25 C49.6243388,25 25,49.6243388 25,80 C25,110.375661 49.6243388,135 80,135 Z" id="Oval" fill="#BA3E48" fill-rule="nonzero" mask="url(#mask-2)"></path>
                </g>
            </g>
        </g>
    </g>
</svg>
