<svg xmlns="http://www.w3.org/2000/svg" xmlns:xlink="http://www.w3.org/1999/xlink" width="970" height="160"><defs><path id="a" d="M80 160c-44.183 0-80-35.817-80-80S35.817 0 80 0s80 35.817 80 80-35.817 80-80 80z"/></defs><g fill="none" fill-rule="evenodd"><g fill="#FFF"><path d="M257.77 52.197c-5.446-6.086-13.143-9.128-23.09-9.128-8.209 0-14.188 1.56-17.938 4.683-3.75 3.122-5.625 7.33-5.625 12.626 0 2.687.474 4.92 1.421 6.698.948 1.779 2.428 3.3 4.44 4.565 2.014 1.264 4.56 2.331 7.638 3.2 3.079.87 6.789 1.779 11.13 2.727 4.5.949 8.585 1.996 12.256 3.142 3.67 1.146 6.789 2.589 9.354 4.328 2.566 1.738 4.54 3.872 5.92 6.402 1.382 2.529 2.073 5.65 2.073 9.366 0 3.714-.73 6.955-2.19 9.721-1.461 2.766-3.514 5.078-6.158 6.936-2.645 1.857-5.802 3.26-9.473 4.208-3.67.949-7.756 1.423-12.255 1.423-13.104 0-24.195-4.189-33.273-12.567l3.197-4.86c3.552 3.714 7.894 6.658 13.025 8.832 5.131 2.173 10.894 3.26 17.288 3.26 7.341 0 13.084-1.344 17.228-4.03 4.145-2.688 6.217-6.759 6.217-12.212 0-2.766-.553-5.118-1.658-7.054-1.105-1.937-2.743-3.616-4.914-5.039-2.17-1.423-4.914-2.648-8.23-3.675-3.315-1.028-7.183-2.016-11.604-2.964-4.5-.949-8.466-1.956-11.9-3.023-3.433-1.067-6.315-2.41-8.643-4.031-2.33-1.62-4.086-3.577-5.27-5.869-1.184-2.292-1.776-5.177-1.776-8.654 0-3.794.73-7.153 2.19-10.078a21.28 21.28 0 0 1 6.099-7.41c2.605-2.015 5.723-3.536 9.354-4.564 3.631-1.027 7.657-1.541 12.078-1.541 5.447 0 10.301.81 14.564 2.43s8.13 4.09 11.604 7.41l-3.078 4.742zM274.703 79.702c0-5.058.888-10.097 2.664-15.115 1.776-5.02 4.362-9.505 7.756-13.457s7.558-7.172 12.492-9.662c4.934-2.49 10.558-3.735 16.873-3.735 7.5 0 13.894 1.72 19.183 5.158 5.289 3.438 9.236 7.844 11.84 13.219l-4.973 2.845c-1.5-2.924-3.256-5.374-5.269-7.35-2.013-1.976-4.184-3.577-6.512-4.802a28.824 28.824 0 0 0-7.282-2.667 34.797 34.797 0 0 0-7.46-.83c-5.368 0-10.104 1.086-14.21 3.26-4.104 2.173-7.577 5-10.42 8.477-2.841 3.477-4.992 7.41-6.453 11.796-1.46 4.387-2.19 8.793-2.19 13.22 0 4.979.868 9.72 2.605 14.226 1.737 4.505 4.105 8.477 7.104 11.915a34.5 34.5 0 0 0 10.657 8.24c4.105 2.055 8.526 3.082 13.262 3.082 2.526 0 5.131-.316 7.815-.948a30.415 30.415 0 0 0 7.697-2.964c2.447-1.344 4.736-3.063 6.867-5.158 2.132-2.094 3.908-4.564 5.329-7.41l5.21 2.49a28.136 28.136 0 0 1-5.802 8.418 36.413 36.413 0 0 1-8.17 6.165c-3 1.66-6.178 2.904-9.532 3.734-3.355.83-6.651 1.245-9.888 1.245-5.762 0-11.031-1.264-15.807-3.794-4.776-2.529-8.9-5.829-12.374-9.9-3.473-4.07-6.177-8.693-8.11-13.87-1.935-5.177-2.902-10.453-2.902-15.828zM427.332 38.208v84.175h-6.039v-40.31h-53.047v40.31h-6.039V38.208h6.04V76.62h53.046V38.208zM462.342 29.512V19.079h5.21v10.433zM498.18 29.512V19.079h5.21v10.433zM482.747 122.976c-5.841 0-11.17-1.225-15.985-3.676-4.815-2.45-8.96-5.65-12.433-9.603-3.473-3.952-6.157-8.496-8.051-13.634-1.895-5.137-2.842-10.393-2.842-15.768 0-5.611 1.006-10.986 3.02-16.123 2.012-5.138 4.775-9.683 8.288-13.634 3.513-3.952 7.677-7.094 12.492-9.426 4.815-2.331 10.025-3.497 15.63-3.497 5.841 0 11.19 1.245 16.044 3.734 4.855 2.49 9 5.75 12.433 9.781 3.434 4.031 6.098 8.596 7.993 13.694 1.894 5.098 2.842 10.255 2.842 15.471 0 5.691-1.007 11.105-3.02 16.243-2.013 5.137-4.776 9.662-8.288 13.574-3.513 3.913-7.677 7.035-12.493 9.366-4.815 2.332-10.025 3.498-15.63 3.498zm-33.272-42.68c0 4.82.809 9.464 2.427 13.93 1.618 4.465 3.907 8.417 6.868 11.855 2.96 3.438 6.492 6.185 10.597 8.24 4.105 2.055 8.605 3.082 13.499 3.082 5.052 0 9.61-1.067 13.676-3.2 4.065-2.135 7.539-4.96 10.42-8.477 2.881-3.518 5.111-7.49 6.69-11.915 1.579-4.426 2.368-8.932 2.368-13.516 0-4.821-.829-9.464-2.486-13.93-1.658-4.466-3.967-8.418-6.927-11.856a34.253 34.253 0 0 0-10.48-8.24c-4.025-2.054-8.446-3.082-13.261-3.082-5.052 0-9.63 1.067-13.736 3.201-4.104 2.134-7.617 4.96-10.538 8.477-2.92 3.517-5.17 7.489-6.75 11.915-1.578 4.426-2.367 8.931-2.367 13.515zM544.438 49.59v72.793H538.4V38.208h4.618l58.967 74.098V38.208h6.04v84.175h-5.566zM662.137 38.8h5.92l12.552 30.588L693.16 38.8h5.92l-14.8 35.449 17.642 41.02 32.208-77.061h6.63l-35.996 84.175H699.2L680.727 79.11l-18.59 43.273h-5.565l-35.878-84.175h6.512l32.326 77.061 17.406-41.02zM779.835 38.208h5.21l35.523 84.175h-6.394L802.45 94.64h-40.14l-11.723 27.742h-6.512l35.76-84.175zm20.959 51.453L782.44 45.558l-18.708 44.103h37.062zM833.356 122.383V38.208h6.039v78.721H889.6v5.454zM902.152 122.383V38.208h27.944c6.631 0 12.453 1.106 17.466 3.32 5.012 2.212 9.176 5.216 12.492 9.01 3.315 3.793 5.802 8.24 7.46 13.337C969.17 68.973 970 74.407 970 80.177c0 6.402-.928 12.191-2.783 17.368-1.855 5.177-4.519 9.603-7.992 13.279-3.474 3.675-7.677 6.52-12.61 8.536-4.934 2.015-10.44 3.023-16.519 3.023h-27.944zm61.81-42.206c0-5.296-.75-10.176-2.25-14.642-1.5-4.466-3.691-8.319-6.572-11.56-2.882-3.24-6.414-5.769-10.598-7.587-4.184-1.818-8.999-2.727-14.446-2.727h-21.905v73.268h21.905c5.526 0 10.4-.928 14.624-2.786 4.223-1.857 7.755-4.446 10.597-7.765 2.842-3.32 4.993-7.212 6.454-11.678 1.46-4.466 2.19-9.307 2.19-14.523z"/></g><g class="logo-icon"><mask id="b" fill="#fff"><use xlink:href="#a"/></mask><use fill="#FFF" fill-rule="nonzero" xlink:href="#a"/><path fill="#BA3E48" fill-rule="nonzero" d="M64 128h32v32H64z" mask="url(#b)"/><path fill="#FFF" d="M80 144c-35.346 0-64-28.654-64-64 0-35.346 28.654-64 64-64 35.346 0 64 28.654 64 64 0 35.346-28.654 64-64 64z" mask="url(#b)"/><path fill="#BA3E48" fill-rule="nonzero" d="M80 135c30.376 0 55-24.624 55-55s-24.624-55-55-55-55 24.624-55 55 24.624 55 55 55z" mask="url(#b)"/></g></g></svg>
