<?xml version="1.0" encoding="UTF-8"?>
<svg width="600px" height="395px" viewBox="0 0 600 395" version="1.1" xmlns="http://www.w3.org/2000/svg" xmlns:xlink="http://www.w3.org/1999/xlink">
    <!-- Generator: Sketch 43.2 (39069) - http://www.bohemiancoding.com/sketch -->
    <title>smedia-icon-old</title>
    <desc>Created with Sketch.</desc>
    <defs></defs>
    <g id="Page-1" stroke="none" stroke-width="1" fill="none" fill-rule="evenodd">
        <g id="smedia-icon-old" fill-rule="nonzero" fill="#BA3E48">
            <path d="M218.595784,46.377959 C174.71405,46.377959 134.384835,143.09734 134.384835,203.73064 C134.384835,251.25228 174.796323,288.76469 219.453864,288.70537 C236.574849,288.68267 253.472686,283.79292 267.504789,274.30817 C220.070506,212.68282 243.70816,145.05333 280.877072,108.92567 C265.234373,73.656869 242.66394,46.377959 218.595784,46.377959 L218.595784,46.377959 Z" id="Shape"></path>
            <path d="M471.143505,199.48467 C471.143505,257.737878 423.949355,304.961428 365.732437,304.961428 C307.515508,304.961428 260.321368,257.737878 260.321368,199.48467 C260.321368,141.231472 307.515508,94.0079221 365.732437,94.0079221 C423.949355,94.0079221 471.143505,141.231472 471.143505,199.48467 Z" id="Shape"></path>
            <path d="M351.525464,322.34447 L351.525464,394.82292 L379.056,394.82292 L379.056,322.35711 C369.452097,323.72079 360.368406,323.60022 351.525464,322.34451 L351.525464,322.34447 Z" id="Shape"></path>
            <path d="M284.71828,77.749999 C295.961271,37.331128 330.829158,0.4630263 386.321641,0.0416657 C451.551125,-0.45362899 490.215215,57.536833 490.215215,92.541666 C479.76017,101.92043 471.627494,113.686 465.022582,126.91667 C421.895541,69.401215 349.147008,63.18093 295.961281,97.333333 C292.934526,91.120313 288.829448,83.952864 284.71828,77.749999 L284.71828,77.749999 Z" id="Shape"></path>
            <path d="M138.767581,105.66667 C81.8693002,61.598239 0.103993378,102.8427 0.103993378,174.41667 C0.72860411,238.68589 69.2275817,281.08333 126.89997,249.625 C105.017301,206.97901 119.075121,159.02898 138.767581,105.66667 L138.767581,105.66667 Z" id="Shape"></path>
            <path d="M476.149028,145.27315 C485.108067,124.67672 503.782113,95.445848 526.02613,95.445848 C564.358193,95.445848 599.079524,182.78949 599.079524,224.82266 C599.079524,268.93226 562.442596,296.38169 528.324869,296.38169 C502.036602,296.38169 483.208333,284.26506 469.376805,266.5125 C490.638958,231.96431 496.817231,192.76119 476.149028,145.27315 Z" id="Shape"></path>
            <path d="M513.770436,313.28161 L513.770436,385.76006 L541.300982,385.76006 L541.300982,313.29425 C531.697078,314.65793 522.613388,314.53736 513.770436,313.28165 L513.770436,313.28161 Z" id="Shape"></path>
            <path d="M206.305807,306.51077 L206.305807,378.98922 L233.836343,378.98922 L233.836343,306.52341 C224.232439,307.88709 215.148759,307.76652 206.305807,306.51081 L206.305807,306.51077 Z" id="Shape"></path>
            <path d="M72.3788496,277.96911 L72.3788496,350.44756 L99.9093943,350.44756 L99.9093943,277.98175 C90.3054869,279.34543 81.2217983,279.22486 72.3788496,277.96915 L72.3788496,277.96911 Z" id="Shape"></path>
        </g>
    </g>
</svg>
