<?xml version="1.0" encoding="UTF-8"?>
<svg width="852px" height="125px" viewBox="0 0 852 125" version="1.1" xmlns="http://www.w3.org/2000/svg" xmlns:xlink="http://www.w3.org/1999/xlink">
    <!-- Generator: Sketch 43.2 (39069) - http://www.bohemiancoding.com/sketch -->
    <title>text</title>
    <desc>Created with Sketch.</desc>
    <defs></defs>
    <g id="Page-1" stroke="none" stroke-width="1" fill="none" fill-rule="evenodd">
        <g id="watermark" transform="translate(-254.000000, -47.000000)" fill="#000000">
            <g id="text" transform="translate(254.000000, 47.000000)">
                <path d="M721.56,125 L721.56,120.52 L724.52,120.52 L724.52,125 L721.56,125 Z M755.04,125 L755.04,103.04 L745.6,119.88 L743.56,119.88 L734.08,103.04 L734.08,125 L730.48,125 L730.48,96.6 L734.28,96.6 L744.56,115.04 L754.88,96.6 L758.64,96.6 L758.64,125 L755.04,125 Z M784.72,121.8 L784.72,125 L765.44,125 L765.44,96.6 L784.36,96.6 L784.36,99.8 L769.04,99.8 L769.04,109 L782.36,109 L782.36,112 L769.04,112 L769.04,121.8 L784.72,121.8 Z M789.64,125 L789.64,96.6 L799.48,96.6 C801.746678,96.6 803.739991,96.9733296 805.46,97.72 C807.180009,98.4666704 808.613328,99.4799936 809.76,100.76 C810.906672,102.040006 811.766664,103.539991 812.34,105.26 C812.913336,106.980009 813.2,108.813324 813.2,110.76 C813.2,112.920011 812.880003,114.873325 812.24,116.62 C811.599997,118.366675 810.680006,119.859994 809.48,121.1 C808.279994,122.340006 806.833342,123.299997 805.14,123.98 C803.446658,124.660003 801.56001,125 799.48,125 L789.64,125 Z M809.56,110.76 C809.56,109.159992 809.340002,107.686673 808.9,106.34 C808.459998,104.993327 807.806671,103.840005 806.94,102.88 C806.073329,101.919995 805.01334,101.166669 803.76,100.62 C802.50666,100.073331 801.080008,99.8 799.48,99.8 L793.24,99.8 L793.24,121.8 L799.48,121.8 C801.106675,121.8 802.553327,121.520003 803.82,120.96 C805.086673,120.399997 806.139996,119.626672 806.98,118.64 C807.820004,117.653328 808.459998,116.486673 808.9,115.14 C809.340002,113.793327 809.56,112.333341 809.56,110.76 Z M818.28,125 L818.28,96.6 L821.88,96.6 L821.88,125 L818.28,125 Z M837.32,96.6 L840.36,96.6 L851.96,125 L848.12,125 L844.76,116.68 L832.84,116.68 L829.52,125 L825.68,125 L837.32,96.6 Z M843.96,113.88 L838.84,100.76 L833.56,113.88 L843.96,113.88 Z" id=".MEDIA"></path>
                <path d="M56.72,14.96 C51.1999724,8.7999692 43.4000504,5.72 33.32,5.72 C24.9999584,5.72 18.940019,7.2999842 15.14,10.46 C11.339981,13.6200158 9.44,17.8799732 9.44,23.24 C9.44,25.9600136 9.9199952,28.219991 10.88,30.02 C11.8400048,31.820009 13.3399898,33.3599936 15.38,34.64 C17.4200102,35.9200064 19.9999844,36.9999956 23.12,37.88 C26.2400156,38.7600044 29.999978,39.6799952 34.4,40.64 C38.9600228,41.6000048 43.0999814,42.6599942 46.82,43.82 C50.5400186,44.9800058 53.699987,46.4399912 56.3,48.2 C58.900013,49.9600088 60.899993,52.1199872 62.3,54.68 C63.700007,57.2400128 64.4,60.3999812 64.4,64.16 C64.4,67.9200188 63.6600074,71.199986 62.18,74 C60.6999926,76.800014 58.6200134,79.1399906 55.94,81.02 C53.2599866,82.9000094 50.0600186,84.3199952 46.34,85.28 C42.6199814,86.2400048 38.4800228,86.72 33.92,86.72 C20.6399336,86.72 9.400046,82.4800424 0.2,74 L3.44,69.08 C7.040018,72.8400188 11.439974,75.819989 16.64,78.02 C21.840026,80.220011 27.6799676,81.32 34.16,81.32 C41.6000372,81.32 47.419979,79.9600136 51.62,77.24 C55.820021,74.5199864 57.92,70.4000276 57.92,64.88 C57.92,62.079986 57.3600056,59.7000098 56.24,57.74 C55.1199944,55.7799902 53.460011,54.0800072 51.26,52.64 C49.059989,51.1999928 46.2800168,49.9600052 42.92,48.92 C39.5599832,47.8799948 35.6400224,46.8800048 31.16,45.92 C26.5999772,44.9599952 22.5800174,43.9400054 19.1,42.86 C15.6199826,41.7799946 12.7000118,40.4200082 10.34,38.78 C7.9799882,37.1399918 6.200006,35.1600116 5,32.84 C3.799994,30.5199884 3.2,27.6000176 3.2,24.08 C3.2,20.2399808 3.9399926,16.8400148 5.42,13.88 C6.9000074,10.9199852 8.9599868,8.4200102 11.6,6.38 C14.2400132,4.3399898 17.3999816,2.8000052 21.08,1.76 C24.7600184,0.7199948 28.8399776,0.2 33.32,0.2 C38.8400276,0.2 43.7599784,1.0199918 48.08,2.66 C52.4000216,4.3000082 56.3199824,6.7999832 59.84,10.16 L56.72,14.96 Z M73.88,42.8 C73.88,37.6799744 74.779991,32.5800254 76.58,27.5 C78.380009,22.4199746 80.9999828,17.88002 84.44,13.88 C87.8800172,9.87998 92.099975,6.6200126 97.1,4.1 C102.100025,1.5799874 107.799968,0.32 114.2,0.32 C121.800038,0.32 128.279973,2.0599826 133.64,5.54 C139.000027,9.0200174 142.999987,13.4799728 145.64,18.92 L140.6,21.8 C139.079992,18.8399852 137.30001,16.36001 135.26,14.36 C133.21999,12.35999 131.020012,10.7400062 128.66,9.5 C126.299988,8.2599938 123.840013,7.3600028 121.28,6.8 C118.719987,6.2399972 116.200012,5.96 113.72,5.96 C108.279973,5.96 103.480021,7.059989 99.32,9.26 C95.1599792,11.460011 91.6400144,14.3199824 88.76,17.84 C85.8799856,21.3600176 83.7000074,25.3399778 82.22,29.78 C80.7399926,34.2200222 80,38.6799776 80,43.16 C80,48.2000252 80.8799912,52.9999772 82.64,57.56 C84.4000088,62.1200228 86.7999848,66.1399826 89.84,69.62 C92.8800152,73.1000174 96.4799792,75.8799896 100.64,77.96 C104.800021,80.0400104 109.279976,81.08 114.08,81.08 C116.640013,81.08 119.279986,80.7600032 122,80.12 C124.720014,79.4799968 127.319988,78.4800068 129.8,77.12 C132.280012,75.7599932 134.599989,74.0200106 136.76,71.9 C138.920011,69.7799894 140.719993,67.2800144 142.16,64.4 L147.44,66.92 C145.999993,70.120016 144.040012,72.9599876 141.56,75.44 C139.079988,77.9200124 136.320015,79.9999916 133.28,81.68 C130.239985,83.3600084 127.020017,84.6199958 123.62,85.46 C120.219983,86.3000042 116.880016,86.72 113.6,86.72 C107.759971,86.72 102.420024,85.4400128 97.58,82.88 C92.7399758,80.3199872 88.5600176,76.9800206 85.04,72.86 C81.5199824,68.7399794 78.7800098,64.0600262 76.82,58.82 C74.8599902,53.5799738 73.88,48.2400272 73.88,42.8 Z M228.56,0.8 L228.56,86 L222.44,86 L222.44,45.2 L168.68,45.2 L168.68,86 L162.56,86 L162.56,0.8 L168.68,0.8 L168.68,39.68 L222.44,39.68 L222.44,0.8 L228.56,0.8 Z M284.72,86.6 C278.79997,86.6 273.400024,85.3600124 268.52,82.88 C263.639976,80.3999876 259.440018,77.16002 255.92,73.16 C252.399982,69.15998 249.68001,64.560026 247.76,59.36 C245.83999,54.159974 244.88,48.8400272 244.88,43.4 C244.88,37.7199716 245.89999,32.280026 247.94,27.08 C249.98001,21.879974 252.779982,17.28002 256.34,13.28 C259.900018,9.27998 264.119976,6.1000118 269,3.74 C273.880024,1.3799882 279.159972,0.2 284.84,0.2 C290.76003,0.2 296.179975,1.4599874 301.1,3.98 C306.020025,6.5000126 310.219983,9.7999796 313.7,13.88 C317.180017,17.9600204 319.87999,22.5799742 321.8,27.74 C323.72001,32.9000258 324.68,38.1199736 324.68,43.4 C324.68,49.1600288 323.66001,54.639974 321.62,59.84 C319.57999,65.040026 316.780018,69.6199802 313.22,73.58 C309.659982,77.5400198 305.440024,80.6999882 300.56,83.06 C295.679976,85.4200118 290.400028,86.6 284.72,86.6 Z M251,43.4 C251,48.2800244 251.819992,52.9799774 253.46,57.5 C255.100008,62.0200226 257.419985,66.0199826 260.42,69.5 C263.420015,72.9800174 266.999979,75.7599896 271.16,77.84 C275.320021,79.9200104 279.879975,80.96 284.84,80.96 C289.960026,80.96 294.579979,79.8800108 298.7,77.72 C302.820021,75.5599892 306.339985,72.7000178 309.26,69.14 C312.180015,65.5799822 314.439992,61.5600224 316.04,57.08 C317.640008,52.5999776 318.44,48.0400232 318.44,43.4 C318.44,38.5199756 317.600008,33.8200226 315.92,29.3 C314.239992,24.7799774 311.900015,20.7800174 308.9,17.3 C305.899985,13.8199826 302.36002,11.0400104 298.28,8.96 C294.19998,6.8799896 289.720024,5.84 284.84,5.84 C279.719974,5.84 275.080021,6.9199892 270.92,9.08 C266.759979,11.2400108 263.200015,14.0999822 260.24,17.66 C257.279985,21.2200178 255.000008,25.2399776 253.4,29.72 C251.799992,34.2000224 251,38.7599768 251,43.4 Z M397.88,80.48 L397.88,86 L341.12,86 L341.12,0.8 L396.8,0.8 L396.8,6.32 L347.24,6.32 L347.24,39.8 L390.56,39.8 L390.56,45.08 L347.24,45.08 L347.24,80.48 L397.88,80.48 Z M420.68,12.32 L420.68,86 L414.56,86 L414.56,0.8 L419.24,0.8 L479,75.8 L479,0.8 L485.12,0.8 L485.12,86 L479.48,86 L420.68,12.32 Z M539.96,1.4 L545.96,1.4 L558.68,32.36 L571.4,1.4 L577.4,1.4 L562.4,37.28 L580.28,78.8 L612.92,0.8 L619.64,0.8 L583.16,86 L577.52,86 L558.8,42.2 L539.96,86 L534.32,86 L497.96,0.8 L504.56,0.8 L537.32,78.8 L554.96,37.28 L539.96,1.4 Z M659.24,0.8 L664.52,0.8 L700.52,86 L694.04,86 L682.16,57.92 L641.48,57.92 L629.6,86 L623,86 L659.24,0.8 Z M680.48,52.88 L661.88,8.24 L642.92,52.88 L680.48,52.88 Z M713.48,86 L713.48,0.8 L719.6,0.8 L719.6,80.48 L770.48,80.48 L770.48,86 L713.48,86 Z M783.2,86 L783.2,0.8 L811.52,0.8 C818.240034,0.8 824.139975,1.9199888 829.22,4.16 C834.300025,6.4000112 838.519983,9.4399808 841.88,13.28 C845.240017,17.1200192 847.759992,21.6199742 849.44,26.78 C851.120008,31.9400258 851.96,37.4399708 851.96,43.28 C851.96,49.7600324 851.020009,55.6199738 849.14,60.86 C847.259991,66.1000262 844.560018,70.5799814 841.04,74.3 C837.519982,78.0200186 833.260025,80.8999898 828.26,82.94 C823.259975,84.9800102 817.680031,86 811.52,86 L783.2,86 Z M845.84,43.28 C845.84,37.9199732 845.080008,32.9800226 843.56,28.46 C842.039992,23.9399774 839.820015,20.0400164 836.9,16.76 C833.979985,13.4799836 830.400021,10.9200092 826.16,9.08 C821.919979,7.2399908 817.040028,6.32 811.52,6.32 L789.32,6.32 L789.32,80.48 L811.52,80.48 C817.120028,80.48 822.059979,79.5400094 826.34,77.66 C830.620021,75.7799906 834.199986,73.1600168 837.08,69.8 C839.960014,66.4399832 842.139993,62.5000226 843.62,57.98 C845.100007,53.4599774 845.84,48.5600264 845.84,43.28 Z" id="SCHOENWALD"></path>
            </g>
        </g>
    </g>
</svg>