<?xml version="1.0" encoding="UTF-8"?>
<svg width="200px" height="200px" viewBox="0 0 200 200" version="1.1" xmlns="http://www.w3.org/2000/svg" xmlns:xlink="http://www.w3.org/1999/xlink">
    <!-- Generator: Sketch 43.2 (39069) - http://www.bohemiancoding.com/sketch -->
    <title>logo</title>
    <desc>Created with Sketch.</desc>
    <defs></defs>
    <g id="Page-1" stroke="none" stroke-width="1" fill="none" fill-rule="evenodd">
        <g id="watermark" fill-rule="nonzero">
            <g id="logo">
                <path d="M94,180 L94,198 L106,198 L106,180 L94,180 Z M88,174 L112,174 L112,198 L88,198 L88,174 Z" id="Rectangle" fill="#BA3E48"></path>
                <path d="M100,158 C132.032515,158 158,132.032515 158,100 C158,67.9674845 132.032515,42 100,42 C67.9674845,42 42,67.9674845 42,100 C42,132.032515 67.9674845,158 100,158 Z M100,164 C64.653776,164 36,135.346224 36,100 C36,64.653776 64.653776,36 100,36 C135.346224,36 164,64.653776 164,100 C164,135.346224 135.346224,164 100,164 Z" id="Oval" fill="#BA3E48"></path>
                <path d="M100,194 C151.914766,194 194,151.914766 194,100 C194,48.0852335 151.914766,6 100,6 C48.0852335,6 6,48.0852335 6,100 C6,151.914766 48.0852335,194 100,194 Z M100,200 C44.771525,200 0,155.228475 0,100 C0,44.771525 44.771525,0 100,0 C155.228475,0 200,44.771525 200,100 C200,155.228475 155.228475,200 100,200 Z" id="Oval" fill="#000000"></path>
            </g>
        </g>
    </g>
</svg>