<?xml version="1.0" standalone="no"?>
<!DOCTYPE svg PUBLIC "-//W3C//DTD SVG 20010904//EN"
 "http://www.w3.org/TR/2001/REC-SVG-20010904/DTD/svg10.dtd">
<svg version="1.0" xmlns="http://www.w3.org/2000/svg"
 width="960.000000pt" height="960.000000pt" viewBox="0 0 960.000000 960.000000"
 preserveAspectRatio="xMidYMid meet">
<metadata>
Created by potrace 1.11, written by Peter Selinger 2001-2013
</metadata>
<g transform="translate(0.000000,960.000000) scale(0.100000,-0.100000)"
fill="#000000" stroke="none">
<path d="M4590 9594 c-1220 -62 -2327 -550 -3180 -1404 -797 -796 -1275 -1810
-1386 -2940 -12 -119 -17 -264 -17 -450 0 -311 16 -519 64 -805 198 -1175 833
-2238 1784 -2981 434 -339 962 -619 1478 -783 115 -36 474 -131 498 -131 5 0
9 162 9 398 l0 398 158 -32 c532 -107 1072 -107 1605 0 l157 32 0 -398 c0
-236 4 -398 9 -398 5 0 90 20 189 45 859 216 1607 639 2232 1265 797 796 1275
1810 1386 2940 24 237 24 663 0 900 -111 1130 -589 2144 -1386 2940 -793 794
-1823 1280 -2931 1385 -161 15 -535 25 -669 19z m635 -1578 c840 -119 1581
-537 2101 -1185 376 -468 603 -999 691 -1612 25 -176 25 -662 0 -838 -128
-894 -572 -1650 -1284 -2183 -439 -328 -944 -533 -1514 -615 -176 -25 -662
-25 -838 0 -752 108 -1414 443 -1921 974 -482 505 -776 1116 -877 1824 -25
176 -25 662 0 838 101 708 395 1319 877 1824 515 540 1239 900 1960 976 58 6
119 13 135 15 73 10 566 -4 670 -18z"/>
</g>
</svg>
