<svg style="fill: #ba3e48" xmlns:rdf="http://www.w3.org/1999/02/22-rdf-syntax-ns#" xmlns="http://www.w3.org/2000/svg" height="394.79999" width="600" version="1.1" xmlns:cc="http://creativecommons.org/ns#" xmlns:dc="http://purl.org/dc/elements/1.1/">
  <path d="m218.96011,47.377959c-43.95487,0-84.3513,96.719381-84.3513,157.352681,0,47.52164,40.47884,85.03405,85.21081,84.97473,17.14952-0.0227,34.07552-4.91245,48.13101-14.3972-47.51334-61.62535-23.83629-129.25484,13.39457-165.3825-15.66877-35.268801-38.27682-62.547711-62.38509-62.547711z"/>
  <path d="m471.40453,304.19366c0,57.92777-46.95974,104.8875-104.8875,104.8875-57.92777,0-104.8875-46.95973-104.8875-104.8875,0-57.92776,46.95973-104.88749,104.8875-104.88749,57.92776,0,104.8875,46.95973,104.8875,104.88749z" transform="matrix(1.0066667,0,0,1.005618,-2.6184985,-105.41795)"/>
  <path d="m352.11134,323.34447,0,72.47845,27.57642,0,0-72.46581c-9.61991,1.36368-18.71874,1.24311-27.57642-0.0126z"/>
  <path d="M285.19281,78.749999c11.26173-40.418871,46.18773-77.2869727,101.7727-77.7083333,65.3382-0.49529469,104.06673,57.4951673,104.06673,92.5000003-10.47247,9.378764-18.6187,21.144334-25.23462,34.375004-43.19892-57.515455-116.0687-63.73574-169.34307-29.583337-3.0318-6.21302-7.14372-13.380469-11.26174-19.583334z"/>
  <path d="M138.99886,106.66667c-56.993111-44.068431-138.8946933-2.82397-138.8946933,68.75,0.62565175,64.26922,69.2387943,106.66666,127.0073033,75.20833-21.91914-42.64599-7.83789-90.59602,11.88739-143.95833z"/>
  <path d="m476.94261,146.27315c8.97397-20.59643,27.67914-49.827302,49.96023-49.827302,38.39595,0,73.17515,87.343642,73.17515,129.376812,0,44.1096-36.69799,71.55903-70.87258,71.55903-26.33208,0-45.19173-12.11663-59.04631-29.86919,21.29759-34.54819,27.48616-73.75131,6.78351-121.23935z"/>
  <path d="m514.62672,314.28161,0,72.47845,27.57643,0,0-72.46581c-9.61991,1.36368-18.71874,1.24311-27.57643-0.0126z"/>
  <path d="m206.64965,307.51077,0,72.47845,27.57642,0,0-72.46581c-9.61991,1.36368-18.71873,1.24311-27.57642-0.0126z"/>
  <path d="m72.499481,278.96911,0,72.47845,27.576429,0,0-72.46581c-9.619914,1.36368-18.718742,1.24311-27.576429-0.0126z"/>
</svg>
